# xmcd CD database file
#
# Track frame offsets:
#	150
#	14142
#	28735
#
# Disc length: 634 seconds
#
# Revision: 0
# Processed by: cddbd v1.5PL3 Copyright (c) Steve Scherf et al.
# Submitted via: CDex 1.50beta9
#
DISCID=21027803
DTITLE=THE GROOVERS - SWEETHEART OF MY SOUL
DYEAR=1996
DGENRE=Rock
TTITLE0=SWEETHEART OF MY SOUL
TTITLE1=BEAT DOWN THE WORLD
TTITLE2=暗闇の中で
EXTD=YEAR: 1996
EXTT0=
EXTT1=
EXTT2=
PLAYORDER=
